name Walk1.mot
datacolumns 19
datarows 12
range 1.61500000 1.62600000
endheader

                time	   L_ground_force_vx	   L_ground_force_vy	   L_ground_force_vz	   L_ground_force_px	   L_ground_force_py	   L_ground_force_pz	   R_ground_force_vx	   R_ground_force_vy	   R_ground_force_vz	   R_ground_force_px	   R_ground_force_py	   R_ground_force_pz	   L_ground_torque_x	   L_ground_torque_y	   L_ground_torque_z	   R_ground_torque_x	   R_ground_torque_y	   R_ground_torque_z	
          1.61500000	          0.10115244	          0.21752101	         -0.01115299	         -0.00004437	          0.00000000	         -0.00000769	        -28.75047693	        715.00830447	        -49.72826098	          0.40241517	          0.00000000	          0.08073225	          0.00000000	          0.00026360	          0.00000000	          0.00000000	          4.28989336	          0.00000000	
          1.61600000	          0.09872286	          0.21347554	         -0.01165451	         -0.00006380	          0.00000000	         -0.00001231	        -28.49747635	        713.49164017	        -49.53422835	          0.40293690	          0.00000000	          0.08072497	          0.00000000	          0.00022209	          0.00000000	          0.00000000	          4.22513646	          0.00000000	
          1.61700000	          0.09612680	          0.20896736	         -0.01206934	         -0.00008134	          0.00000000	         -0.00001648	        -28.24824290	        711.99439872	        -49.33754495	          0.40345838	          0.00000000	          0.08071762	          0.00000000	          0.00018326	          0.00000000	          0.00000000	          4.16133685	          0.00000000	
          1.61800000	          0.09338823	          0.20405285	         -0.01240330	         -0.00009708	          0.00000000	         -0.00002024	        -28.00275723	        710.51739877	        -49.13839140	          0.40397952	          0.00000000	          0.08071020	          0.00000000	          0.00014704	          0.00000000	          0.00000000	          4.09850899	          0.00000000	
          1.61900000	          0.09052961	          0.19878512	         -0.01266199	         -0.00011112	          0.00000000	         -0.00002360	        -27.76099768	        709.06142397	        -48.93695745	          0.40450025	          0.00000000	          0.08070272	          0.00000000	          0.00011335	          0.00000000	          0.00000000	          4.03666512	          0.00000000	
          1.62000000	          0.08757195	          0.19321412	         -0.01285085	         -0.00012354	          0.00000000	         -0.00002658	        -27.52293997	        707.62722462	        -48.73344238	          0.40502051	          0.00000000	          0.08069520	          0.00000000	          0.00008210	          0.00000000	          0.00000000	          3.97581500	          0.00000000	
          1.62100000	          0.08453485	          0.18738667	         -0.01297508	         -0.00013444	          0.00000000	         -0.00002921	        -27.28855691	        706.21551806	        -48.52805537	          0.40554024	          0.00000000	          0.08068764	          0.00000000	          0.00005319	          0.00000000	          0.00000000	          3.91596580	          0.00000000	
          1.62200000	          0.08143654	          0.18134660	         -0.01303972	         -0.00014391	          0.00000000	         -0.00003151	        -27.05781786	        704.82698838	        -48.32101581	          0.40605938	          0.00000000	          0.08068005	          0.00000000	          0.00002653	          0.00000000	          0.00000000	          3.85712227	          0.00000000	
          1.62300000	          0.07829393	          0.17513482	         -0.01304960	         -0.00015202	          0.00000000	         -0.00003349	        -26.83068841	        703.46228642	        -48.11255337	          0.40657790	          0.00000000	          0.08067244	          0.00000000	          0.00000205	          0.00000000	          0.00000000	          3.79928708	          0.00000000	
          1.62400000	          0.07512267	          0.16878940	         -0.01300932	         -0.00015888	          0.00000000	         -0.00003518	        -26.60713006	        702.12203063	        -47.90290772	          0.40709576	          0.00000000	          0.08066482	          0.00000000	         -0.00002037	          0.00000000	          0.00000000	          3.74246128	          0.00000000	
          1.62500000	          0.07193716	          0.16234568	         -0.01292330	         -0.00016455	          0.00000000	         -0.00003659	        -26.38710029	        700.80680905	        -47.69232812	          0.40761291	          0.00000000	          0.08065718	          0.00000000	         -0.00004079	          0.00000000	          0.00000000	          3.68664487	          0.00000000	
          1.62600000	          0.06875067	          0.15583636	         -0.01279577	         -0.00016911	          0.00000000	         -0.00003775	        -26.17055287	        699.51718209	        -47.48107282	          0.40812933	          0.00000000	          0.08064953	          0.00000000	         -0.00005933	          0.00000000	          0.00000000	          3.63183730	          0.00000000	
